VIDEO

Format                                   : MPEG-4 Visual
Codec ID                                 : XVID
Duration                                 : 1h 36mn
Bit rate                                 : 1 512 Kbps
Width                                    : 720 pixels
Height                                   : 576 pixels
Display aspect ratio                     : 5:4
Frame rate                               : 25.000 fps
Standard                                 : PAL
Color space                              : YUV
Chroma subsampling                       : 4:2:0
Compression mode                         : Lossy
Bits/(Pixel*Frame)                       : 0.146
Stream size                              : 1.02 GiB 



AUDIO 


Format                                   : MPEG Audio
Codec ID                                 : 55
Codec ID/Hint                            : MP3
Duration                                 : 1h 36mn
Bit rate                                 : 320 Kbps
Channel(s)                               : 2 channels
Sampling rate                            : 44.1 KHz
Compression mode                         : Lossy
Stream size                              : 2.54 MiB (0%)
Alignment                                : Aligned on interleaves
Interleave, duration                     : 2276 ms (56.91 video frames)
Interleave, preload duration             : 522 ms